<svg width="96" height="36" viewBox="0 0 96 36" fill="none" xmlns="http://www.w3.org/2000/svg">
<path d="M78 0C68.0588 0 60 8.05883 60 18C60 27.9412 68.0588 36 78 36C87.9412 36 96 27.9412 96 18C96 8.05883 87.9412 0 78 0ZM86.1095 10L77.9933 16.4163L69.6132 10H86.1095ZM86.9445 26H68.7778V12.7098L77.1518 19.0615C77.3763 19.2332 77.7085 19.319 77.9763 19.319C78.2505 19.319 78.4885 19.229 78.7155 19.0497L86.9445 12.5037V26Z" fill="white"/>
<path d="M20.9023 35.7657C20.7524 35.7902 20.6019 35.8127 20.4508 35.8333C20.6019 35.8127 20.7524 35.7902 20.9023 35.7657Z" fill="white"/>
<path d="M21.2624 35.7042C21.1907 35.7174 21.119 35.7295 21.0474 35.7419C21.119 35.7295 21.1907 35.7174 21.2624 35.7042Z" fill="white"/>
<path d="M20.0487 35.8833C19.8732 35.9031 19.6966 35.9207 19.5194 35.9355C19.6966 35.9207 19.8732 35.9031 20.0487 35.8833Z" fill="white"/>
<path d="M20.3945 35.8409C20.3102 35.8522 20.2253 35.8626 20.1407 35.8725C20.2253 35.8626 20.3102 35.8522 20.3945 35.8409Z" fill="white"/>
<path d="M21.7524 35.6069C21.6893 35.6204 21.6258 35.6339 21.5624 35.6468C21.6258 35.6339 21.6893 35.6204 21.7524 35.6069Z" fill="white"/>
<path d="M22.9686 35.3048C22.9175 35.3194 22.8664 35.3331 22.8153 35.3474C22.8664 35.3331 22.9175 35.3194 22.9686 35.3048Z" fill="white"/>
<path d="M22.6008 35.4054C22.5453 35.42 22.4896 35.4348 22.4338 35.4488C22.4896 35.4348 22.5453 35.4202 22.6008 35.4054Z" fill="white"/>
<path d="M22.1196 35.5256C22.0608 35.5394 22.0015 35.5523 21.9421 35.5655C22.0015 35.5523 22.0608 35.5394 22.1196 35.5256Z" fill="white"/>
<path d="M19.5137 35.936C19.4189 35.944 19.3242 35.9511 19.2291 35.9575C19.3242 35.9511 19.4189 35.944 19.5137 35.936Z" fill="white"/>
<path d="M36 18C36 8.06039 27.9396 0 18 0C8.06039 0 0 8.06039 0 18C0 27.9396 8.06039 36 18 36C18.1057 36 18.2109 35.9978 18.3164 35.9959V21.9836H14.4492V17.4768H18.3164V14.1603C18.3164 10.314 20.6645 8.22052 24.0955 8.22052C25.7385 8.22052 27.1508 8.34302 27.5625 8.39767V12.4176H25.1966C23.33 12.4176 22.9686 13.3047 22.9686 14.6063V17.4768H27.4318L26.85 21.9836H22.9686V35.3046C30.4923 33.1477 36 26.2161 36 18Z" fill="white"/>
<path d="M19.1893 35.9598C19.002 35.9719 18.8138 35.9815 18.6251 35.9879C18.8138 35.9815 19.002 35.9719 19.1893 35.9598Z" fill="white"/>
<path d="M18.6155 35.9885C18.5161 35.9918 18.4164 35.9943 18.3167 35.9959C18.4164 35.9943 18.5161 35.9918 18.6155 35.9885Z" fill="white"/>
</svg>
